#Comment line ignore any data following # character 
#Hierarchical Translation and Rotation (.htr) file 
[Header]	
#Header keywords are followed by a single value 
FileType HTR		#Single word string
DataType HTRS		#Translation followed by rotation and scale data
FileVersion 1		#integer
NumSegments 84		#integer
NumFrames 2		#integer
DataFrameRate 30		#integer, data frame rate in this file
EulerRotationOrder ZYX
CalibrationUnits mm
RotationUnits Degrees
GlobalAxisofGravity Y
BoneLengthAxis Y
ScaleFactor 1.00
[SegmentNames&Hierarchy]
#CHILD	PARENT
MASTER GLOBAL
root MASTER
chest root
L_mid_tent01 root
R_mid_tent01 root
spine01 root
Bip01_Neck chest
L_humerus chest
R_humerus chest
weapon_bone chest
Bip01_Head Bip01_Neck
eye_left_bone Bip01_Head
eye_right_bone Bip01_Head
L_forearm L_humerus
L_front_hand L_forearm
L_weapon_bone L_forearm
L_front_hand01_01 L_front_hand
L_front_hand02_01 L_front_hand
L_front_hand03_01 L_front_hand
L_front_hand01_02 L_front_hand01_01
L_front_hand02_02 L_front_hand02_01
L_front_hand03_02 L_front_hand03_01
R_forearm R_humerus
R_front_hand R_forearm
R_weapon_bone R_forearm
R_front_hand01_01 R_front_hand
R_front_hand02_01 R_front_hand
R_front_hand03_01 R_front_hand
R_front_hand01_02 R_front_hand01_01
R_front_hand02_02 R_front_hand02_01
R_front_hand03_02 R_front_hand03_01
null_rope01_connect L_mid_tent01
Rope1_Seg01 null_rope01_connect
Rope1_Seg02 Rope1_Seg01
Rope1_Seg03 Rope1_Seg02
Rope1_Seg04 Rope1_Seg03
Rope1_Seg05 Rope1_Seg04
Rope1_Seg06 Rope1_Seg05
Rope1_Seg07 Rope1_Seg06
Rope1_Seg09 Rope1_Seg07
L_mid_hand01 Rope1_Seg09
L_mid_hand02 Rope1_Seg09
L_mid_hand03 Rope1_Seg09
null_rope02_connect R_mid_tent01
Rope2_Seg01 null_rope02_connect
Rope2_Seg02 Rope2_Seg01
Rope2_Seg03 Rope2_Seg02
Rope2_Seg04 Rope2_Seg03
Rope2_Seg05 Rope2_Seg04
Rope2_Seg06 Rope2_Seg05
Rope2_Seg07 Rope2_Seg06
Rope2_Seg09 Rope2_Seg07
R_mid_hand01 Rope2_Seg09
R_mid_hand02 Rope2_Seg09
R_mid_hand03 Rope2_Seg09
spine02 spine01
spine03 spine02
pelvis spine03
null_rope03_connect pelvis
null_rope04_connect pelvis
Rope3_Seg01 null_rope03_connect
Rope3_Seg02 Rope3_Seg01
Rope3_Seg03 Rope3_Seg02
Rope3_Seg04 Rope3_Seg03
Rope3_Seg05 Rope3_Seg04
Rope3_Seg06 Rope3_Seg05
Rope3_Seg07 Rope3_Seg06
Rope3_Seg08 Rope3_Seg07
Rope3_Seg09 Rope3_Seg08
R_rear_hand01 Rope3_Seg09
R_rear_hand02 Rope3_Seg09
R_rear_hand03 Rope3_Seg09
Rope4_Seg01 null_rope04_connect
Rope4_Seg02 Rope4_Seg01
Rope4_Seg03 Rope4_Seg02
Rope4_Seg04 Rope4_Seg03
Rope4_Seg05 Rope4_Seg04
Rope4_Seg06 Rope4_Seg05
Rope4_Seg07 Rope4_Seg06
Rope4_Seg08 Rope4_Seg07
Rope4_Seg09 Rope4_Seg08
L_rear_hand01 Rope4_Seg09
L_rear_hand02 Rope4_Seg09
L_rear_hand03 Rope4_Seg09
[BasePosition]
#SegmentName Tx, Ty, Tz, Rx, Ry, Rz, BoneLength
MASTER 0.000000 0.000000 0.000000 -90.000000 0.000000 0.000000 10.000000 
root 0.000000 0.000000 0.000000 0.000000 0.000000 0.000000 10.000000 
chest 0.000000 0.000000 0.000000 0.000000 0.000000 0.000000 10.000000 
L_mid_tent01 0.000000 0.000000 0.000000 0.000000 0.000000 0.000000 10.000000 
R_mid_tent01 0.000000 0.000000 0.000000 0.000000 0.000000 0.000000 10.000000 
spine01 0.000000 0.000000 0.000000 0.000000 0.000000 0.000000 10.000000 
Bip01_Neck 0.000000 0.000000 0.000000 0.000000 0.000000 0.000000 10.000000 
L_humerus 0.000000 0.000000 0.000000 0.000000 0.000000 0.000000 10.000000 
R_humerus 0.000000 0.000000 0.000000 0.000000 0.000000 0.000000 10.000000 
weapon_bone 0.000000 0.000000 0.000000 0.000000 0.000000 0.000000 10.000000 
Bip01_Head 0.000000 0.000000 0.000000 0.000000 0.000000 0.000000 10.000000 
eye_left_bone 0.000000 0.000000 0.000000 0.000000 0.000000 0.000000 10.000000 
eye_right_bone 0.000000 0.000000 0.000000 0.000000 0.000000 0.000000 10.000000 
L_forearm 0.000000 0.000000 0.000000 0.000000 0.000000 0.000000 10.000000 
L_front_hand 0.000000 0.000000 0.000000 0.000000 0.000000 0.000000 10.000000 
L_weapon_bone 0.000000 0.000000 0.000000 0.000000 0.000000 0.000000 10.000000 
L_front_hand01_01 0.000000 0.000000 0.000000 0.000000 0.000000 0.000000 10.000000 
L_front_hand02_01 0.000000 0.000000 0.000000 0.000000 0.000000 0.000000 10.000000 
L_front_hand03_01 0.000000 0.000000 0.000000 0.000000 0.000000 0.000000 10.000000 
L_front_hand01_02 0.000000 0.000000 0.000000 0.000000 0.000000 0.000000 10.000000 
L_front_hand02_02 0.000000 0.000000 0.000000 0.000000 0.000000 0.000000 10.000000 
L_front_hand03_02 0.000000 0.000000 0.000000 0.000000 0.000000 0.000000 10.000000 
R_forearm 0.000000 0.000000 0.000000 0.000000 0.000000 0.000000 10.000000 
R_front_hand 0.000000 0.000000 0.000000 0.000000 0.000000 0.000000 10.000000 
R_weapon_bone 0.000000 0.000000 0.000000 0.000000 0.000000 0.000000 10.000000 
R_front_hand01_01 0.000000 0.000000 0.000000 0.000000 0.000000 0.000000 10.000000 
R_front_hand02_01 0.000000 0.000000 0.000000 0.000000 0.000000 0.000000 10.000000 
R_front_hand03_01 0.000000 0.000000 0.000000 0.000000 0.000000 0.000000 10.000000 
R_front_hand01_02 0.000000 0.000000 0.000000 0.000000 0.000000 0.000000 10.000000 
R_front_hand02_02 0.000000 0.000000 0.000000 0.000000 0.000000 0.000000 10.000000 
R_front_hand03_02 0.000000 0.000000 0.000000 0.000000 0.000000 0.000000 10.000000 
null_rope01_connect 0.000000 0.000000 0.000000 0.000000 0.000000 0.000000 10.000000 
Rope1_Seg01 0.000000 0.000000 0.000000 0.000000 0.000000 0.000000 10.000000 
Rope1_Seg02 0.000000 0.000000 0.000000 0.000000 0.000000 0.000000 10.000000 
Rope1_Seg03 0.000000 0.000000 0.000000 0.000000 0.000000 0.000000 10.000000 
Rope1_Seg04 0.000000 0.000000 0.000000 0.000000 0.000000 0.000000 10.000000 
Rope1_Seg05 0.000000 0.000000 0.000000 0.000000 0.000000 0.000000 10.000000 
Rope1_Seg06 0.000000 0.000000 0.000000 0.000000 0.000000 0.000000 10.000000 
Rope1_Seg07 0.000000 0.000000 0.000000 0.000000 0.000000 0.000000 10.000000 
Rope1_Seg09 0.000000 0.000000 0.000000 0.000000 0.000000 0.000000 10.000000 
L_mid_hand01 0.000000 0.000000 0.000000 0.000000 0.000000 0.000000 10.000000 
L_mid_hand02 0.000000 0.000000 0.000000 0.000000 0.000000 0.000000 10.000000 
L_mid_hand03 0.000000 0.000000 0.000000 0.000000 0.000000 0.000000 10.000000 
null_rope02_connect 0.000000 0.000000 0.000000 0.000000 0.000000 0.000000 10.000000 
Rope2_Seg01 0.000000 0.000000 0.000000 0.000000 0.000000 0.000000 10.000000 
Rope2_Seg02 0.000000 0.000000 0.000000 0.000000 0.000000 0.000000 10.000000 
Rope2_Seg03 0.000000 0.000000 0.000000 0.000000 0.000000 0.000000 10.000000 
Rope2_Seg04 0.000000 0.000000 0.000000 0.000000 0.000000 0.000000 10.000000 
Rope2_Seg05 0.000000 0.000000 0.000000 0.000000 0.000000 0.000000 10.000000 
Rope2_Seg06 0.000000 0.000000 0.000000 0.000000 0.000000 0.000000 10.000000 
Rope2_Seg07 0.000000 0.000000 0.000000 0.000000 0.000000 0.000000 10.000000 
Rope2_Seg09 0.000000 0.000000 0.000000 0.000000 0.000000 0.000000 10.000000 
R_mid_hand01 0.000000 0.000000 0.000000 0.000000 0.000000 0.000000 10.000000 
R_mid_hand02 0.000000 0.000000 0.000000 0.000000 0.000000 0.000000 10.000000 
R_mid_hand03 0.000000 0.000000 0.000000 0.000000 0.000000 0.000000 10.000000 
spine02 0.000000 0.000000 0.000000 0.000000 0.000000 0.000000 10.000000 
spine03 0.000000 0.000000 0.000000 0.000000 0.000000 0.000000 10.000000 
pelvis 0.000000 0.000000 0.000000 0.000000 0.000000 0.000000 10.000000 
null_rope03_connect 0.000000 0.000000 0.000000 0.000000 0.000000 0.000000 10.000000 
null_rope04_connect 0.000000 0.000000 0.000000 0.000000 0.000000 0.000000 10.000000 
Rope3_Seg01 0.000000 0.000000 0.000000 0.000000 0.000000 0.000000 10.000000 
Rope3_Seg02 0.000000 0.000000 0.000000 0.000000 0.000000 0.000000 10.000000 
Rope3_Seg03 0.000000 0.000000 0.000000 0.000000 0.000000 0.000000 10.000000 
Rope3_Seg04 0.000000 0.000000 0.000000 0.000000 0.000000 0.000000 10.000000 
Rope3_Seg05 0.000000 0.000000 0.000000 0.000000 0.000000 0.000000 10.000000 
Rope3_Seg06 0.000000 0.000000 0.000000 0.000000 0.000000 0.000000 10.000000 
Rope3_Seg07 0.000000 0.000000 0.000000 0.000000 0.000000 0.000000 10.000000 
Rope3_Seg08 0.000000 0.000000 0.000000 0.000000 0.000000 0.000000 10.000000 
Rope3_Seg09 0.000000 0.000000 0.000000 0.000000 0.000000 0.000000 10.000000 
R_rear_hand01 0.000000 0.000000 0.000000 0.000000 0.000000 0.000000 10.000000 
R_rear_hand02 0.000000 0.000000 0.000000 0.000000 0.000000 0.000000 10.000000 
R_rear_hand03 0.000000 0.000000 0.000000 0.000000 0.000000 0.000000 10.000000 
Rope4_Seg01 0.000000 0.000000 0.000000 0.000000 0.000000 0.000000 10.000000 
Rope4_Seg02 0.000000 0.000000 0.000000 0.000000 0.000000 0.000000 10.000000 
Rope4_Seg03 0.000000 0.000000 0.000000 0.000000 0.000000 0.000000 10.000000 
Rope4_Seg04 0.000000 0.000000 0.000000 0.000000 0.000000 0.000000 10.000000 
Rope4_Seg05 0.000000 0.000000 0.000000 0.000000 0.000000 0.000000 10.000000 
Rope4_Seg06 0.000000 0.000000 0.000000 0.000000 0.000000 0.000000 10.000000 
Rope4_Seg07 0.000000 0.000000 0.000000 0.000000 0.000000 0.000000 10.000000 
Rope4_Seg08 0.000000 0.000000 0.000000 0.000000 0.000000 0.000000 10.000000 
Rope4_Seg09 0.000000 0.000000 0.000000 0.000000 0.000000 0.000000 10.000000 
L_rear_hand01 0.000000 0.000000 0.000000 0.000000 0.000000 0.000000 10.000000 
L_rear_hand02 0.000000 0.000000 0.000000 0.000000 0.000000 0.000000 10.000000 
L_rear_hand03 0.000000 0.000000 0.000000 0.000000 0.000000 0.000000 10.000000 
#Beginning of Data. Separated by tabs
#Fr	Tx	Ty	Tz	Rx	Ry	Rz	SF
[MASTER]
16 0.000000 0.000000 0.000000 0.001660 0.001660 0.001660 0.000000
17 0.000000 0.000000 0.000000 0.001660 0.001660 0.001660 0.000000
[root]
16 -27.426451 8.992534 1386.001831 -91.728889 -11.584497 -89.471619 1386.302368
17 -30.585461 12.182322 1389.622559 -91.728889 -11.584497 -89.471619 1390.012451
[chest]
16 -84.512650 -34.090519 0.000000 -2.170494 -0.006436 168.239609 91.129311
17 -84.512650 -34.090519 0.000000 -2.170494 -0.006436 168.239609 91.129311
[L_mid_tent01]
16 27.299511 22.177458 -249.918259 -20.661392 12.026043 12.983022 252.381134
17 27.299511 22.177458 -249.918259 -20.661392 12.026043 12.983022 252.381134
[R_mid_tent01]
16 23.228794 24.509907 226.238495 -165.192200 -17.956036 24.056787 228.744751
17 23.228794 24.509907 226.238495 -165.192200 -17.956036 24.056787 228.744751
[spine01]
16 -0.361383 -0.195265 0.000000 -0.000001 -0.000007 22.052340 0.410763
17 -0.361383 -0.195265 0.000000 -0.000001 -0.000007 22.052340 0.410763
[Bip01_Neck]
16 165.484543 71.581718 0.000119 175.896118 1.177290 24.871183 180.302734
17 165.484543 71.581718 0.000119 175.896118 1.177290 24.871183 180.302734
[L_humerus]
16 -13.983130 -135.272980 -120.471481 -5.480129 68.873367 84.573456 181.680161
17 -13.983130 -135.272980 -120.471481 -5.480129 68.873367 84.573456 181.680161
[R_humerus]
16 -13.983309 -135.273102 125.287651 27.897165 -69.888802 67.752319 184.909012
17 -13.983309 -135.273102 125.287651 27.897165 -69.888802 67.752319 184.909012
[weapon_bone]
16 235.964890 -300.705902 0.000000 0.000000 -89.951546 -128.212341 382.234833
17 235.964890 -300.705902 0.000000 0.000000 -89.951546 -128.212341 382.234833
[Bip01_Head]
16 193.865707 99.525291 7.890739 1.727521 4.534425 -43.429157 218.062973
17 193.865707 99.525291 7.890739 1.727521 4.534425 -43.429157 218.062973
[eye_left_bone]
16 -24.626970 125.451866 -64.772606 0.000000 -90.000000 -99.840431 143.318359
17 -24.626970 125.451866 -64.772606 0.000000 -90.000000 -99.840431 143.318359
[eye_right_bone]
16 -24.626970 125.451866 64.327362 0.000000 -89.965736 80.156380 143.117676
17 -24.626970 125.451866 64.327362 0.000000 -89.965736 80.156380 143.117676
[L_forearm]
16 322.776093 0.000000 -0.000119 0.000396 -0.002314 -109.419975 322.776093
17 322.776093 0.000000 -0.000119 0.000396 -0.002314 -109.419975 322.776093
[L_front_hand]
16 241.149185 -0.042021 -3.300071 -179.659958 -2.242151 -0.019832 241.171753
17 241.149185 -0.042021 -3.300071 -179.659958 -2.242151 -0.019832 241.171753
[L_weapon_bone]
16 156.183838 0.000000 0.000000 0.000014 0.000007 0.000001 156.183838
17 156.183838 0.000000 0.000000 0.000014 0.000007 0.000001 156.183838
[L_front_hand01_01]
16 86.095154 20.947098 -0.655860 -0.366594 -0.477154 75.385574 88.609184
17 86.095154 20.947098 -0.655860 -0.366594 -0.477154 75.385574 88.609184
[L_front_hand02_01]
16 86.935165 -11.437475 24.513514 154.399796 -59.883835 -61.369587 91.046425
17 86.935165 -11.437475 24.513514 154.399796 -59.883835 -61.369587 91.046425
[L_front_hand03_01]
16 86.637497 -14.123976 -20.424902 -153.913849 58.118122 -62.702866 90.126129
17 86.637497 -14.123976 -20.424902 -153.913849 58.118122 -62.702866 90.126129
[L_front_hand01_02]
16 71.020905 -0.000179 0.000030 0.000334 -0.002323 -106.379684 71.020905
17 71.020905 -0.000179 0.000030 0.000334 -0.002323 -106.379684 71.020905
[L_front_hand02_02]
16 71.020927 -0.000119 0.000060 0.000334 -0.002323 -106.379684 71.020927
17 71.020927 -0.000119 0.000060 0.000334 -0.002323 -106.379684 71.020927
[L_front_hand03_02]
16 71.020905 -0.000060 0.000060 0.000334 -0.002323 -106.379684 71.020905
17 71.020905 -0.000060 0.000060 0.000334 -0.002323 -106.379684 71.020905
[R_forearm]
16 322.776428 -0.000060 0.000030 0.202103 0.065158 -108.062805 322.776428
17 322.776428 -0.000060 0.000030 0.202103 0.065158 -108.062805 322.776428
[R_front_hand]
16 238.847015 -0.006795 2.210259 -0.270529 1.703932 2.322530 238.857239
17 238.847015 -0.006795 2.210259 -0.270529 1.703932 2.322530 238.857239
[R_weapon_bone]
16 155.664093 0.002503 -0.000030 0.003487 0.001180 -90.988930 155.664078
17 155.664093 0.002503 -0.000030 0.003487 0.001180 -90.988930 155.664078
[R_front_hand01_01]
16 87.624611 14.231146 22.918642 -154.633499 -59.950619 61.746044 91.683487
17 87.624611 14.231146 22.918642 -154.633499 -59.950619 61.746044 91.683487
[R_front_hand02_01]
16 89.356956 14.367283 -19.491137 154.602661 58.302849 63.744389 92.579636
17 89.356956 14.367283 -19.491137 154.602661 58.302849 63.744389 92.579636
[R_front_hand03_01]
16 87.286232 -22.307278 -0.143439 0.162155 -0.423168 -75.767921 90.091743
17 87.286232 -22.307278 -0.143439 0.162155 -0.423168 -75.767906 90.091743
[R_front_hand01_02]
16 71.020905 0.000060 0.000119 0.002323 -0.000334 106.381714 71.020905
17 71.020905 0.000060 0.000119 0.002323 -0.000334 106.381714 71.020905
[R_front_hand02_02]
16 71.020844 -0.000030 -0.000119 0.002323 -0.000334 106.381714 71.020836
17 71.020844 -0.000030 -0.000119 0.002323 -0.000334 106.381714 71.020836
[R_front_hand03_02]
16 71.020905 0.000000 0.000030 0.002323 -0.000334 106.381714 71.020905
17 71.020905 0.000000 0.000030 0.002323 -0.000334 106.381714 71.020905
[null_rope01_connect]
16 328.732483 0.000000 -0.000238 -154.483337 -64.791321 -118.914307 328.732483
17 328.732483 0.000000 -0.000238 -154.483337 -64.791321 -118.914307 328.732483
[Rope1_Seg01]
16 -0.000038 -0.000114 0.000105 70.007591 -0.198573 -130.612595 0.000160
17 -0.000038 -0.000114 0.000106 70.822243 0.372111 -130.817734 0.000160
[Rope1_Seg02]
16 139.999863 -0.000179 0.000000 -9.957873 5.088490 1.212907 139.999863
17 139.999863 -0.000179 0.000000 -9.353707 4.708982 1.111170 139.999863
[Rope1_Seg03]
16 139.999924 0.000060 -0.000060 -12.637841 5.354688 2.213037 139.999924
17 139.999924 0.000060 -0.000060 -11.758034 4.962465 1.948929 139.999924
[Rope1_Seg04]
16 139.999924 -0.000060 -0.000119 -13.371995 4.954021 2.929962 139.999924
17 139.999924 -0.000060 -0.000119 -11.607946 4.404263 2.165771 139.999924
[Rope1_Seg05]
16 139.999832 0.000119 -0.000060 -25.039921 7.855764 11.572420 139.999832
17 139.999832 0.000119 -0.000060 -26.639624 8.383178 11.352564 139.999832
[Rope1_Seg06]
16 139.999954 0.000119 -0.000060 -8.204902 0.813950 7.366418 139.999954
17 139.999954 0.000119 -0.000060 -8.943896 0.899117 7.775763 139.999954
[Rope1_Seg07]
16 139.999985 0.000060 0.000000 -2.997480 -0.013779 3.381572 139.999985
17 139.999985 0.000060 0.000000 -3.136552 -0.026883 3.476104 139.999985
[Rope1_Seg09]
16 121.602913 0.000119 -0.000089 -89.793175 -1.359789 0.847147 121.602913
17 121.602913 0.000119 -0.000089 -89.793175 -1.359789 0.847147 121.602913
[L_mid_hand01]
16 103.859421 1.038730 8.195221 106.855484 -31.239275 -9.461397 104.187431
17 103.859421 1.038730 8.195221 106.855484 -31.239275 -9.461397 104.187431
[L_mid_hand02]
16 105.572853 -4.139662 -10.864139 -142.331345 25.752670 -28.774628 106.211075
17 105.572853 -4.139662 -10.864139 -142.331345 25.752670 -28.774628 106.211075
[L_mid_hand03]
16 104.641464 17.579376 -3.913581 -16.122810 9.734291 34.223598 106.179977
17 104.641464 17.579376 -3.913581 -16.122810 9.734291 34.223598 106.179977
[null_rope02_connect]
16 328.732849 0.000179 -0.000119 -140.208786 68.099197 -35.150627 328.732849
17 328.732849 0.000179 -0.000119 -140.208786 68.099197 -35.150627 328.732849
[Rope2_Seg01]
16 0.000095 0.000153 0.000038 -11.234001 5.940612 -32.839909 0.000184
17 0.000095 0.000153 0.000041 -10.477245 6.676683 -33.646793 0.000184
[Rope2_Seg02]
16 139.999741 -0.000060 -0.000119 48.258209 0.970025 -12.930928 139.999756
17 139.999741 -0.000060 -0.000119 47.761223 0.446547 -12.101955 139.999756
[Rope2_Seg03]
16 140.000107 0.000030 0.000000 26.536062 -7.790975 -7.100412 140.000107
17 140.000107 0.000030 0.000000 22.929094 -6.485602 -5.551308 140.000107
[Rope2_Seg04]
16 139.999802 0.000000 -0.000060 13.434821 -10.271312 -3.386276 139.999802
17 139.999802 0.000000 -0.000060 12.505243 -8.023564 -2.858924 139.999802
[Rope2_Seg05]
16 139.999985 -0.000060 0.000119 15.475713 -21.234568 -6.033776 139.999985
17 139.999985 -0.000060 0.000119 17.897276 -21.709835 -6.555741 139.999985
[Rope2_Seg06]
16 139.999893 -0.000030 -0.000119 3.867625 -13.694833 -0.413091 139.999893
17 139.999893 -0.000030 -0.000119 4.398867 -15.691393 -0.020221 139.999893
[Rope2_Seg07]
16 139.999893 0.000060 -0.000060 0.947734 -6.166914 0.366666 139.999893
17 139.999893 0.000060 -0.000060 0.980791 -6.773604 0.617440 139.999893
[Rope2_Seg09]
16 121.338966 0.000089 -0.000060 33.793236 -1.359788 -0.847141 121.338966
17 121.338966 0.000089 -0.000060 33.793236 -1.359788 -0.847141 121.338966
[R_mid_hand01]
16 104.680779 11.144459 -10.335981 -41.523792 25.424656 28.595957 105.778534
17 104.680779 11.144459 -10.335981 -41.523792 25.424656 28.595957 105.778534
[R_mid_hand02]
16 104.070427 2.443552 8.231699 72.847389 -32.746803 10.013901 104.424065
17 104.070427 2.443552 8.231699 72.847389 -32.746803 10.013901 104.424065
[R_mid_hand03]
16 106.028137 -11.221827 -5.996406 -167.901306 10.259192 -37.009720 106.788818
17 106.028137 -11.221827 -5.996406 -167.901306 10.259192 -37.009720 106.788818
[spine02]
16 129.756927 0.001550 0.000119 0.360061 -4.044797 -12.915058 129.756927
17 129.756927 0.001550 0.000119 0.360061 -4.044797 -12.915058 129.756927
[spine03]
16 78.613846 0.087372 -4.898873 1.896495 3.831288 16.473045 78.766380
17 78.613846 0.087372 -4.898873 1.896495 3.831288 16.473045 78.766380
[pelvis]
16 169.435242 0.051022 0.000000 -0.060465 -0.180225 14.087930 169.435257
17 169.435242 0.051022 0.000000 -0.060465 -0.180225 14.087930 169.435257
[null_rope03_connect]
16 -1.257226 -2.466202 137.391083 156.329987 -89.381348 -94.430771 137.418976
17 -1.257226 -2.466202 137.391083 156.329987 -89.381348 -94.430771 137.418976
[null_rope04_connect]
16 -1.259640 -2.480268 -137.844437 156.329987 -89.381348 -94.430771 137.872513
17 -1.259640 -2.480268 -137.844437 156.329987 -89.381348 -94.430771 137.872513
[Rope3_Seg01]
16 0.000010 0.000038 -0.000114 -143.678436 33.971352 -97.506531 0.000121
17 0.000010 0.000038 -0.000114 -144.581207 32.880638 -100.208412 0.000121
[Rope3_Seg02]
16 139.999924 -0.000119 0.000060 1.026357 -3.186110 -8.465550 139.999924
17 139.999924 -0.000119 0.000060 0.934853 -4.197711 -8.920313 139.999924
[Rope3_Seg03]
16 139.999924 -0.000119 0.000119 0.849994 -4.019565 -10.271106 139.999924
17 139.999924 -0.000119 0.000119 0.840360 -5.092974 -10.555882 139.999924
[Rope3_Seg04]
16 139.999924 0.000119 0.000000 1.284796 -9.090782 -18.940054 139.999924
17 139.999924 0.000119 0.000000 1.504186 -10.085110 -18.129789 139.999924
[Rope3_Seg05]
16 139.999924 -0.000238 0.000060 -0.430790 -3.222318 -8.955614 139.999924
17 139.999924 -0.000238 0.000060 -0.076759 -3.813069 -8.361104 139.999924
[Rope3_Seg06]
16 139.999893 -0.000119 -0.000060 1.213839 10.371585 13.296605 139.999893
17 139.999893 -0.000119 -0.000060 0.626969 8.867497 10.093478 139.999893
[Rope3_Seg07]
16 139.999771 0.000060 -0.000119 2.163704 11.664054 15.713793 139.999771
17 139.999771 0.000060 -0.000119 1.816093 11.250620 13.781232 139.999771
[Rope3_Seg08]
16 139.999985 -0.000060 0.000000 1.137777 5.645327 6.637546 139.999985
17 139.999985 -0.000060 0.000000 1.058715 5.456746 5.842899 139.999985
[Rope3_Seg09]
16 90.185997 -0.000179 -0.000060 89.793228 -1.359877 -0.847183 90.185997
17 90.185997 -0.000179 -0.000060 89.793228 -1.359877 -0.847183 90.185997
[R_rear_hand01]
16 103.366196 -6.073594 -10.757982 -161.551193 16.666374 -30.088671 104.101845
17 103.366196 -6.073594 -10.757982 -161.551193 16.666374 -30.088671 104.101845
[R_rear_hand02]
16 100.509819 12.039542 -7.992327 -34.280552 19.289745 28.875523 101.543350
17 100.509819 12.039542 -7.992327 -34.280552 19.289745 28.875523 101.543350
[R_rear_hand03]
16 101.539970 5.215704 5.435467 83.366440 -30.933914 7.284830 101.819031
17 101.539970 5.215704 5.435467 83.366440 -30.933914 7.284830 101.819031
[Rope4_Seg01]
16 0.000010 0.000038 -0.000114 38.209206 16.582056 -129.328049 0.000121
17 0.000010 0.000038 -0.000114 37.374924 17.543331 -130.492569 0.000121
[Rope4_Seg02]
16 139.999985 0.000060 0.000119 0.979847 10.581056 6.901234 139.999985
17 139.999985 0.000060 0.000119 1.073171 9.466151 6.928394 139.999985
[Rope4_Seg03]
16 139.999924 0.000000 -0.000238 1.408352 15.602063 10.277020 139.999924
17 139.999924 0.000000 -0.000238 1.440264 14.666980 10.719161 139.999924
[Rope4_Seg04]
16 139.999985 0.000000 0.000119 1.418063 28.523214 25.236771 139.999985
17 139.999985 0.000000 0.000119 1.216650 28.380791 27.321962 139.999985
[Rope4_Seg05]
16 139.999802 -0.000060 -0.000119 0.806832 6.806979 3.037591 139.999802
17 139.999802 -0.000060 -0.000119 -0.958081 8.373254 5.468033 139.999802
[Rope4_Seg06]
16 139.999924 0.000000 0.000060 14.645617 -16.098688 -25.485159 139.999924
17 139.999924 0.000000 0.000060 16.514294 -13.989554 -26.616941 139.999924
[Rope4_Seg07]
16 139.999802 0.000000 0.000000 4.523582 -16.139111 -16.613354 139.999802
17 139.999802 0.000000 0.000000 4.986129 -15.153898 -17.057871 139.999802
[Rope4_Seg08]
16 139.999924 0.000000 0.000119 -1.127529 -5.191158 -5.261556 139.999924
17 139.999924 0.000000 0.000119 -1.006387 -4.974229 -5.427050 139.999924
[Rope4_Seg09]
16 90.185791 0.000060 0.000060 -135.617828 2.228885 0.850567 90.185791
17 90.185791 0.000060 0.000060 -135.617828 2.228885 0.850567 90.185791
[L_rear_hand01]
16 101.696655 -8.392275 -7.654577 -34.454281 -18.946800 151.655121 102.329041
17 101.696655 -8.392275 -7.654577 -34.454281 -18.946800 151.655121 102.329041
[L_rear_hand02]
16 102.726799 -1.568258 5.773216 83.407906 30.330435 172.796509 102.900848
17 102.726799 -1.568258 5.773216 83.407906 30.330435 172.796509 102.900848
[L_rear_hand03]
16 104.552910 9.721220 -10.420293 -161.379868 -16.473232 -150.512238 105.519653
17 104.552910 9.721220 -10.420293 -161.379868 -16.473232 -150.512238 105.519653
